<svg xmlns="http://www.w3.org/2000/svg" viewBox="0 0 1500 1050" role="img" aria-labelledby="t d"><title id="t">Ett löv viskar vid stenen</title><desc id="d">Barnet och Den lilla draken sitter nära en sten medan ett gyllene löv rör sig mjukt i vinden.</desc><rect width="1500" height="1050" fill="#7592a2"/><circle cx="1120" cy="170" r="85" fill="#fff1bd"/><path d="M0 600Q190 430 420 590T800 530T1160 590T1500 500V1050H0Z" fill="#315e54"/><path d="M0 760Q200 570 520 720T950 650T1500 690V1050H0Z" fill="#5f8d73"/><g fill="#264b43"><circle cx="190" cy="270" r="220"/><circle cx="470" cy="220" r="195"/><circle cx="1390" cy="300" r="250"/></g><path d="M590 895q30-290 220-330q220 70 245 330" fill="#aebdcc" stroke="#577886" stroke-width="20"/><path d="M710 755q145-80 260 10M690 825q165 62 300-4" fill="none" stroke="#e5edf2" stroke-width="15"/><path d="M555 570q50-90 123-13q-52 72-123 13" fill="#e3b756" stroke="#8a6725" stroke-width="10"/><path d="M668 560q85-45 170 10" fill="none" stroke="#fff6d6" stroke-width="14" stroke-linecap="round" stroke-dasharray="8 24"/><g stroke="#183c3b" stroke-width="13" stroke-linejoin="round"><circle cx="485" cy="760" r="64" fill="#d8a07b"/><path d="M420 812q65-55 130 0v135H420z" fill="#e7c061"/><path d="M1080 795q-90-124-7-193q82 70 7 193" fill="#c54c53"/><path d="M1045 680l-75-85 100 40M1110 680l86-77-54 105" fill="#b8444d"/></g></svg>
