<svg xmlns="http://www.w3.org/2000/svg" viewBox="0 0 1500 1050" role="img" aria-labelledby="t d"><title id="t">Tryggt hemma med ett mjukt löv</title><desc id="d">Ett barn vilar under täcket hemma. Genom fönstret syns månen och skogen.</desc><rect width="1500" height="1050" fill="#274852"/><rect x="875" y="120" width="420" height="470" rx="20" fill="#5f8194" stroke="#e9d8af" stroke-width="25"/><circle cx="1135" cy="255" r="85" fill="#fff1bd"/><path d="M890 500q120-160 235-10t160-50v130H890z" fill="#315e54"/><rect y="720" width="1500" height="330" fill="#d8ad7c"/><path d="M90 760h760v290H90z" fill="#7e5d4d"/><path d="M150 690h650v245H150z" fill="#fff8df" stroke="#d4c397" stroke-width="18"/><path d="M160 795q290-165 630 20v200H160z" fill="#d16a62"/><path d="M160 860q310-120 630 10v145H160z" fill="#e9b86a"/><circle cx="460" cy="720" r="80" fill="#d8a07b" stroke="#543d36" stroke-width="13"/><path d="M377 760q85-65 165 0v145H377z" fill="#f2d49a" stroke="#543d36" stroke-width="13"/><path d="M650 690q48-90 123-13q-52 72-123 13" fill="#e3b756" stroke="#8a6725" stroke-width="10"/></svg>
